<svg width="133" height="27" viewBox="0 0 133 27" fill="none" xmlns="http://www.w3.org/2000/svg">
<path d="M22.3655 7.44391C22.0136 7.7646 21.654 8.10491 21.2996 8.46525C20.7038 4.68926 19.8571 2.23483 19.8571 2.23483L18.6117 2.57295C18.0333 4.54852 15.5815 5.47095 15.5815 5.47095C13.0262 6.35155 11.2267 4.7629 11.2267 4.7629L8.62223 5.73239C13.8137 15.5662 13.3954 23.6045 13.3954 23.6045C12.0638 13.9458 5.97083 4.73589 5.97083 4.73589L11.6424 2.77513C12.9644 4.87183 14.9335 4.31672 14.9335 4.31672C17.5501 3.57686 17.0261 1.12025 17.0261 1.12025L20.7503 0C21.5823 2.71064 22.0871 5.2069 22.365 7.44391H22.3655Z" fill="#5DBDF0"/>
<path d="M21.6414 19.8037C21.9171 17.256 21.9145 14.8042 21.7618 12.582C22.0375 12.1258 22.3354 11.6547 22.6507 11.1785C22.7933 16.6268 21.6414 19.8037 21.6414 19.8037Z" fill="#5DBDF0"/>
<path d="M7.91851 8.90927C7.91851 8.90927 6.39516 11.1445 3.34889 9.58769L0.517883 12.3471C0.517883 12.3471 9.02613 16.5249 11.9493 22.1976C11.9493 22.1976 11.3031 17.5418 2.84096 11.9925L3.74375 10.9031C3.74375 10.9031 7.30274 11.9772 7.91851 8.90927Z" fill="#186CA8"/>
<path d="M4.61572 15.0346C4.61572 15.0346 4.55397 17.5218 1.10805 17.6655L0 21.0568C0 21.0568 8.61566 20.913 13.4571 24.2223C13.4571 24.2223 9.72371 20.1936 1.76427 19.8442L2.01041 18.4259C2.01041 18.4259 5.13887 18.2921 4.61572 15.0346Z" fill="#5DBDF0"/>
<path d="M23.3347 16.0007C23.3347 16.0007 29.5195 15.8773 19.0882 21.9204C19.0882 21.9204 13.7341 25.2193 9.08748 25.1578C9.08748 25.1578 6.90965 25.2668 9.08748 23.1539C9.08748 23.1539 4.63615 26.3809 8.69784 26.7918C8.69784 26.7918 13.4571 26.8946 18.5464 24.2663C18.5464 24.2663 28.3192 19.8241 27.3038 16.9566C27.3038 16.9566 27.0372 20.9544 15.6723 24.9831C15.6723 24.9831 26.2984 20.2969 26.8319 17.049C26.8319 17.049 27.119 15.3227 23.3343 16.0007H23.3347Z" fill="#5DBDF0"/>
<path d="M13.2136 12.2486C13.2136 12.2486 15.8393 14.4891 17.4601 17.6133C17.4601 17.6133 18.1372 18.3945 18.5268 17.1815C18.5268 17.1815 21.9527 8.94932 27.553 4.47879C27.553 4.47879 21.0295 8.20946 17.8602 14.2521C17.8602 14.2521 16.2294 11.5698 15.6858 11.0865C15.6858 11.0865 15.2448 10.6652 13.214 12.2478L13.2136 12.2486Z" fill="#5DBDF0"/>
<path d="M120.461 6.43836H118.791V4.89218H124.048V6.43836H122.564L125.594 11.448L128.686 6.43836H127.14V4.89218H132.088V6.43836H130.573L126.46 12.8705L130.851 20.0448H132.397V21.591H127.14V20.0448H128.717L125.223 14.3239L121.852 20.0448H123.429V21.591H118.482V20.0448H119.966L124.388 12.9323L120.461 6.43836Z" fill="white"/>
<path d="M111.998 20.0448H113.853V6.43836H111.998V4.89218H117.564V6.43836H115.708V20.0448H117.564V21.591H111.998V20.0448Z" fill="white"/>
<path d="M101.483 20.0448H103.647V6.43836H100.246V8.91226H98.6068V4.89218H110.543V8.91226H108.904V6.43836H105.503V20.0448H107.667V21.591H101.483V20.0448Z" fill="white"/>
<path d="M96.8468 19.2717V20.9416C95.816 21.5807 94.61 21.9002 93.2287 21.9002C91.6001 21.9002 90.3219 21.3539 89.3942 20.2612C88.4871 19.1686 88.0336 17.643 88.0336 15.6845C88.0336 13.6642 88.518 12.0871 89.487 10.9532C90.4559 9.79874 91.6723 9.2215 93.136 9.2215C94.3317 9.2215 95.3006 9.69566 96.0428 10.644C96.785 11.5923 97.1561 12.9426 97.1561 14.695V15.6536H89.9508C89.9921 17.0967 90.2704 18.2203 90.7858 19.0243C91.3218 19.8283 92.167 20.2509 93.3215 20.2922C94.5997 20.2922 95.7748 19.952 96.8468 19.2717ZM95.3006 14.1693C95.3006 12.9942 95.0842 12.1386 94.6512 11.6026C94.2183 11.046 93.6101 10.7677 92.8267 10.7677C92.064 10.7677 91.4249 11.0563 90.9095 11.6335C90.3941 12.1902 90.0848 13.0354 89.9818 14.1693H95.3006Z" fill="white"/>
<path d="M79.5377 20.0448H81.0839V11.0769H79.5377V9.53073H82.8465L82.9393 11.2625H83.0012C83.3929 10.6027 83.8258 10.1183 84.3 9.80904C84.7741 9.4998 85.3411 9.34518 86.0008 9.34518C86.2482 9.34518 86.4646 9.3658 86.6502 9.40703V11.3552C86.3409 11.2934 86.0214 11.2625 85.6915 11.2625C85.0937 11.2625 84.568 11.4068 84.1144 11.6954C83.6815 11.9634 83.2898 12.4066 82.9393 13.0251V20.0448H84.7947V21.591H79.5377V20.0448Z" fill="white"/>
<path d="M67.633 15.6227C67.633 13.6642 68.1072 12.1077 69.0555 10.9532C70.0244 9.79874 71.2408 9.2215 72.7045 9.2215C74.1682 9.2215 75.333 9.75751 76.1988 10.8295C77.0853 11.9015 77.5286 13.4065 77.5286 15.3444C77.5286 17.3235 77.0647 18.9109 76.137 20.1066C75.2093 21.3023 73.993 21.9002 72.488 21.9002C71.0037 21.9002 69.8183 21.3333 68.9318 20.1994C68.0659 19.0449 67.633 17.5193 67.633 15.6227ZM69.5812 15.3444C69.5812 16.973 69.8389 18.2203 70.3543 19.0861C70.8903 19.9314 71.6531 20.354 72.6426 20.354C73.5703 20.354 74.2919 19.9623 74.8073 19.1789C75.3227 18.3749 75.5804 17.1586 75.5804 15.5299C75.5804 12.3551 74.5702 10.7677 72.5499 10.7677C71.5809 10.7677 70.8387 11.1388 70.3234 11.8809C69.8286 12.6025 69.5812 13.757 69.5812 15.3444Z" fill="white"/>
<path d="M65.3165 21.1271C64.3269 21.6425 63.2446 21.9002 62.0695 21.9002C60.3996 21.9002 59.0802 21.3642 58.1112 20.2922C57.1423 19.2201 56.6578 17.6843 56.6578 15.6845C56.6578 13.6642 57.1629 12.0871 58.1731 10.9532C59.2039 9.79874 60.5336 9.2215 62.1622 9.2215C63.2961 9.2215 64.3475 9.45858 65.3165 9.93274V12.9323H63.6775V11.046C63.224 10.8605 62.6673 10.7677 62.0076 10.7677C60.8531 10.7677 59.9976 11.1388 59.441 11.8809C58.8843 12.6025 58.606 13.757 58.606 15.3444C58.606 17.0349 58.905 18.2821 59.5028 19.0861C60.1007 19.8902 60.9665 20.2922 62.1004 20.2922C63.2137 20.2922 64.2857 20.0139 65.3165 19.4572V21.1271Z" fill="white"/>
<path d="M43.3597 20.0448H44.9059V11.0769H43.3597V9.53073H46.6377L46.7304 11.1388H46.7613C47.8746 9.86059 49.1528 9.2215 50.5959 9.2215C51.6267 9.2215 52.3791 9.52043 52.8533 10.1183C53.3275 10.6955 53.5645 11.5202 53.5645 12.5922V20.0448H55.1107V21.591H50.4722V20.0448H51.7091V12.8396C51.7091 12.0149 51.5648 11.4686 51.2762 11.2006C50.9876 10.912 50.5856 10.7677 50.0702 10.7677C48.8745 10.7677 47.7715 11.4068 46.7613 12.6849V20.0448H47.9983V21.591H43.3597V20.0448Z" fill="white"/>
<path d="M39.8645 20.0448V17.8801H41.5034V21.591H30.3709V20.0448H32.2263V6.43836H30.3709V4.89218H41.1942V8.60302H39.5552V6.43836H34.0818V12.3139H37.1741V10.7677H38.7203V15.7155H37.1741V13.86H34.0818V20.0448H39.8645Z" fill="white"/>
</svg>
