<svg width="243" height="144" viewBox="0 0 243 144" fill="none" xmlns="http://www.w3.org/2000/svg">
<rect width="243" height="143" rx="18" fill="white"/>
<path d="M116.025 48.2125C117.509 48.2125 118.713 47.0092 118.713 45.525C118.713 44.0407 117.509 42.8375 116.025 42.8375C114.541 42.8375 113.338 44.0407 113.338 45.525C113.338 47.0092 114.541 48.2125 116.025 48.2125Z" fill="#186CA8"/>
<path d="M126.775 48.2125C128.259 48.2125 129.463 47.0092 129.463 45.525C129.463 44.0407 128.259 42.8375 126.775 42.8375C125.291 42.8375 124.088 44.0407 124.088 45.525C124.088 47.0092 125.291 48.2125 126.775 48.2125Z" fill="#186CA8"/>
<path d="M121.4 69.7125C111.026 69.7125 102.588 61.2737 102.588 50.9C102.588 40.5262 111.026 32.0875 121.4 32.0875C131.774 32.0875 140.213 40.5262 140.213 50.9C140.213 61.2737 131.774 69.7125 121.4 69.7125ZM121.4 34.775C112.504 34.775 105.275 42.0044 105.275 50.9C105.275 59.7956 112.504 67.025 121.4 67.025C130.296 67.025 137.525 59.7956 137.525 50.9C137.525 42.0044 130.296 34.775 121.4 34.775Z" fill="#186CA8"/>
<path d="M129.006 60.3063C128.441 60.3063 127.931 59.9569 127.743 59.4194C127.28 58.1064 126.422 56.9692 125.286 56.1648C124.15 55.3603 122.792 54.9283 121.4 54.9283C120.008 54.9283 118.65 55.3603 117.514 56.1648C116.378 56.9692 115.52 58.1064 115.058 59.4194C114.816 60.1181 114.036 60.4944 113.338 60.2256C113.17 60.1677 113.016 60.0768 112.884 59.9584C112.753 59.8399 112.646 59.6963 112.571 59.5359C112.496 59.3756 112.454 59.2018 112.447 59.0248C112.44 58.8478 112.469 58.6713 112.531 58.5056C113.848 54.7431 117.423 52.2438 121.4 52.2438C125.378 52.2438 128.952 54.77 130.269 58.5056C130.341 58.7085 130.364 58.9259 130.336 59.1395C130.307 59.3531 130.227 59.5566 130.104 59.7331C129.98 59.9095 129.815 60.0536 129.624 60.1534C129.433 60.2531 129.221 60.3056 129.006 60.3063Z" fill="#186CA8"/>
<path d="M36.5028 83.1454V100.6H33.6903L25.4659 88.7108H25.321V100.6H22.1591V83.1454H24.9886L33.2045 95.0432H33.358V83.1454H36.5028ZM45.522 100.856C44.2436 100.856 43.1357 100.574 42.1982 100.012C41.2607 99.4494 40.5334 98.6625 40.0163 97.6511C39.505 96.6398 39.2493 95.4579 39.2493 94.1057C39.2493 92.7534 39.505 91.5687 40.0163 90.5517C40.5334 89.5346 41.2607 88.7449 42.1982 88.1824C43.1357 87.6199 44.2436 87.3386 45.522 87.3386C46.8004 87.3386 47.9084 87.6199 48.8459 88.1824C49.7834 88.7449 50.5078 89.5346 51.0192 90.5517C51.5362 91.5687 51.7947 92.7534 51.7947 94.1057C51.7947 95.4579 51.5362 96.6398 51.0192 97.6511C50.5078 98.6625 49.7834 99.4494 48.8459 100.012C47.9084 100.574 46.8004 100.856 45.522 100.856ZM45.5391 98.3841C46.2322 98.3841 46.8118 98.1937 47.2777 97.8131C47.7436 97.4267 48.0902 96.9096 48.3175 96.2619C48.5504 95.6142 48.6669 94.8926 48.6669 94.0971C48.6669 93.296 48.5504 92.5716 48.3175 91.9239C48.0902 91.2704 47.7436 90.7506 47.2777 90.3642C46.8118 89.9778 46.2322 89.7846 45.5391 89.7846C44.8288 89.7846 44.2379 89.9778 43.7663 90.3642C43.3004 90.7506 42.951 91.2704 42.718 91.9239C42.4908 92.5716 42.3771 93.296 42.3771 94.0971C42.3771 94.8926 42.4908 95.6142 42.718 96.2619C42.951 96.9096 43.3004 97.4267 43.7663 97.8131C44.2379 98.1937 44.8288 98.3841 45.5391 98.3841ZM60.5028 100.6V83.1454H67.0483C68.3892 83.1454 69.5142 83.3784 70.4233 83.8443C71.3381 84.3102 72.0284 84.9636 72.4943 85.8045C72.9659 86.6398 73.2017 87.6142 73.2017 88.7278C73.2017 89.8471 72.9631 90.8187 72.4858 91.6426C72.0142 92.4608 71.3182 93.0943 70.3977 93.5432C69.4773 93.9864 68.3466 94.2079 67.0057 94.2079H62.3438V91.5829H66.5795C67.3636 91.5829 68.0057 91.475 68.5057 91.2591C69.0057 91.0375 69.375 90.7165 69.6136 90.296C69.858 89.8699 69.9801 89.3471 69.9801 88.7278C69.9801 88.1085 69.858 87.5801 69.6136 87.1426C69.3693 86.6994 68.9972 86.3642 68.4972 86.1369C67.9972 85.904 67.3523 85.7875 66.5625 85.7875H63.6648V100.6H60.5028ZM69.5199 92.6909L73.8409 100.6H70.3125L66.0682 92.6909H69.5199ZM81.5838 100.856C80.2713 100.856 79.1378 100.583 78.1832 100.037C77.2344 99.4864 76.5043 98.7079 75.9929 97.7023C75.4815 96.6909 75.2259 95.5006 75.2259 94.1312C75.2259 92.7846 75.4815 91.6028 75.9929 90.5858C76.5099 89.5631 77.2315 88.7676 78.1577 88.1994C79.0838 87.6256 80.1719 87.3386 81.4219 87.3386C82.2287 87.3386 82.9901 87.4693 83.706 87.7307C84.4276 87.9864 85.0639 88.3841 85.6151 88.9239C86.1719 89.4636 86.6094 90.1511 86.9276 90.9864C87.2457 91.8159 87.4048 92.8045 87.4048 93.9523V94.8983H76.6747V92.8187H84.4474C84.4418 92.2278 84.3139 91.7023 84.0639 91.242C83.8139 90.7761 83.4645 90.4096 83.0156 90.1426C82.5724 89.8756 82.0554 89.742 81.4645 89.742C80.8338 89.742 80.2798 89.8954 79.8026 90.2023C79.3253 90.5034 78.9531 90.9011 78.6861 91.3954C78.4247 91.8841 78.2912 92.421 78.2855 93.0062V94.8216C78.2855 95.5829 78.4247 96.2364 78.7031 96.7818C78.9815 97.3216 79.3707 97.7364 79.8707 98.0261C80.3707 98.3102 80.956 98.4523 81.6264 98.4523C82.0753 98.4523 82.4815 98.3898 82.8452 98.2648C83.2088 98.1341 83.5241 97.9437 83.7912 97.6937C84.0582 97.4437 84.2599 97.1341 84.3963 96.7648L87.277 97.0886C87.0952 97.85 86.7486 98.5148 86.2372 99.0829C85.7315 99.6454 85.0838 100.083 84.294 100.395C83.5043 100.702 82.6009 100.856 81.5838 100.856ZM100.362 90.9693L97.549 91.2761C97.4695 90.992 97.3303 90.725 97.1314 90.475C96.9382 90.225 96.6768 90.0233 96.3473 89.8699C96.0178 89.7165 95.6143 89.6398 95.1371 89.6398C94.495 89.6398 93.9553 89.779 93.5178 90.0574C93.0859 90.3358 92.8729 90.6966 92.8786 91.1398C92.8729 91.5204 93.0121 91.8301 93.2962 92.0687C93.5859 92.3074 94.0632 92.5034 94.728 92.6568L96.9609 93.1341C98.1996 93.4011 99.12 93.8244 99.7223 94.404C100.33 94.9835 100.637 95.742 100.643 96.6795C100.637 97.5034 100.396 98.2307 99.9183 98.8614C99.4467 99.4864 98.7905 99.975 97.9496 100.327C97.1087 100.68 96.1428 100.856 95.0518 100.856C93.4496 100.856 92.1598 100.52 91.1825 99.85C90.2053 99.1739 89.6229 98.2335 89.4354 97.029L92.4439 96.7392C92.5803 97.3301 92.87 97.7761 93.3132 98.0773C93.7564 98.3784 94.3331 98.529 95.0433 98.529C95.7763 98.529 96.3643 98.3784 96.8075 98.0773C97.2564 97.7761 97.4808 97.404 97.4808 96.9608C97.4808 96.5858 97.3359 96.2761 97.0462 96.0318C96.7621 95.7875 96.3189 95.6 95.7166 95.4693L93.4837 95.0006C92.228 94.7392 91.299 94.2989 90.6967 93.6795C90.0945 93.0545 89.7962 92.2648 89.8018 91.3102C89.7962 90.5034 90.0149 89.8045 90.4581 89.2136C90.907 88.617 91.5291 88.1568 92.3246 87.8329C93.1257 87.5034 94.049 87.3386 95.0945 87.3386C96.6286 87.3386 97.8359 87.6653 98.7166 88.3187C99.603 88.9721 100.151 89.8557 100.362 90.9693ZM111.531 95.0943V87.5091H114.616V100.6H111.624V98.2733H111.488C111.192 99.0062 110.707 99.6057 110.031 100.072C109.36 100.537 108.533 100.77 107.55 100.77C106.692 100.77 105.934 100.58 105.275 100.199C104.621 99.8131 104.11 99.2534 103.741 98.5204C103.371 97.7818 103.187 96.8898 103.187 95.8443V87.5091H106.272V95.367C106.272 96.1966 106.499 96.8557 106.954 97.3443C107.408 97.8329 108.005 98.0773 108.744 98.0773C109.198 98.0773 109.638 97.9665 110.065 97.7449C110.491 97.5233 110.84 97.1937 111.113 96.7562C111.391 96.3131 111.531 95.7591 111.531 95.0943ZM120.874 83.1454V100.6H117.788V83.1454H120.874ZM130.583 87.5091V89.8954H123.058V87.5091H130.583ZM124.915 84.3727H128.001V96.6625C128.001 97.0773 128.063 97.3954 128.188 97.617C128.319 97.8329 128.489 97.9807 128.7 98.0602C128.91 98.1398 129.143 98.1795 129.398 98.1795C129.592 98.1795 129.768 98.1653 129.927 98.1369C130.092 98.1085 130.217 98.0829 130.302 98.0602L130.822 100.472C130.657 100.529 130.421 100.591 130.114 100.66C129.813 100.728 129.444 100.768 129.006 100.779C128.234 100.802 127.538 100.685 126.918 100.43C126.299 100.168 125.808 99.7648 125.444 99.2193C125.086 98.6739 124.91 97.992 124.915 97.1739V84.3727ZM143.322 90.9693L140.51 91.2761C140.43 90.992 140.291 90.725 140.092 90.475C139.899 90.225 139.638 90.0233 139.308 89.8699C138.979 89.7165 138.575 89.6398 138.098 89.6398C137.456 89.6398 136.916 89.779 136.479 90.0574C136.047 90.3358 135.834 90.6966 135.839 91.1398C135.834 91.5204 135.973 91.8301 136.257 92.0687C136.547 92.3074 137.024 92.5034 137.689 92.6568L139.922 93.1341C141.161 93.4011 142.081 93.8244 142.683 94.404C143.291 94.9835 143.598 95.742 143.604 96.6795C143.598 97.5034 143.357 98.2307 142.879 98.8614C142.408 99.4864 141.751 99.975 140.911 100.327C140.07 100.68 139.104 100.856 138.013 100.856C136.411 100.856 135.121 100.52 134.143 99.85C133.166 99.1739 132.584 98.2335 132.396 97.029L135.405 96.7392C135.541 97.3301 135.831 97.7761 136.274 98.0773C136.717 98.3784 137.294 98.529 138.004 98.529C138.737 98.529 139.325 98.3784 139.768 98.0773C140.217 97.7761 140.442 97.404 140.442 96.9608C140.442 96.5858 140.297 96.2761 140.007 96.0318C139.723 95.7875 139.28 95.6 138.678 95.4693L136.445 95.0006C135.189 94.7392 134.26 94.2989 133.658 93.6795C133.055 93.0545 132.757 92.2648 132.763 91.3102C132.757 90.5034 132.976 89.8045 133.419 89.2136C133.868 88.617 134.49 88.1568 135.286 87.8329C136.087 87.5034 137.01 87.3386 138.055 87.3386C139.589 87.3386 140.797 87.6653 141.678 88.3187C142.564 88.9721 143.112 89.8557 143.322 90.9693ZM152.237 100.6V83.1454H163.419V85.796H155.399V90.5346H162.652V93.1852H155.399V100.6H152.237ZM170.913 100.856C169.634 100.856 168.526 100.574 167.589 100.012C166.651 99.4494 165.924 98.6625 165.407 97.6511C164.896 96.6398 164.64 95.4579 164.64 94.1057C164.64 92.7534 164.896 91.5687 165.407 90.5517C165.924 89.5346 166.651 88.7449 167.589 88.1824C168.526 87.6199 169.634 87.3386 170.913 87.3386C172.191 87.3386 173.299 87.6199 174.237 88.1824C175.174 88.7449 175.898 89.5346 176.41 90.5517C176.927 91.5687 177.185 92.7534 177.185 94.1057C177.185 95.4579 176.927 96.6398 176.41 97.6511C175.898 98.6625 175.174 99.4494 174.237 100.012C173.299 100.574 172.191 100.856 170.913 100.856ZM170.93 98.3841C171.623 98.3841 172.202 98.1937 172.668 97.8131C173.134 97.4267 173.481 96.9096 173.708 96.2619C173.941 95.6142 174.058 94.8926 174.058 94.0971C174.058 93.296 173.941 92.5716 173.708 91.9239C173.481 91.2704 173.134 90.7506 172.668 90.3642C172.202 89.9778 171.623 89.7846 170.93 89.7846C170.219 89.7846 169.629 89.9778 169.157 90.3642C168.691 90.7506 168.342 91.2704 168.109 91.9239C167.881 92.5716 167.768 93.296 167.768 94.0971C167.768 94.8926 167.881 95.6142 168.109 96.2619C168.342 96.9096 168.691 97.4267 169.157 97.8131C169.629 98.1937 170.219 98.3841 170.93 98.3841ZM188.148 95.0943V87.5091H191.233V100.6H188.241V98.2733H188.105C187.81 99.0062 187.324 99.6057 186.648 100.072C185.977 100.537 185.151 100.77 184.168 100.77C183.31 100.77 182.551 100.58 181.892 100.199C181.239 99.8131 180.727 99.2534 180.358 98.5204C179.989 97.7818 179.804 96.8898 179.804 95.8443V87.5091H182.889V95.367C182.889 96.1966 183.116 96.8557 183.571 97.3443C184.026 97.8329 184.622 98.0773 185.361 98.0773C185.815 98.0773 186.256 97.9665 186.682 97.7449C187.108 97.5233 187.457 97.1937 187.73 96.7562C188.009 96.3131 188.148 95.7591 188.148 95.0943ZM197.491 92.9295V100.6H194.406V87.5091H197.354V89.7335H197.508C197.809 89.0006 198.289 88.4182 198.948 87.9864C199.613 87.5545 200.434 87.3386 201.411 87.3386C202.315 87.3386 203.102 87.5318 203.772 87.9182C204.448 88.3045 204.971 88.8642 205.34 89.5971C205.715 90.3301 205.9 91.2193 205.894 92.2648V100.6H202.809V92.742C202.809 91.867 202.582 91.1824 202.127 90.6881C201.678 90.1937 201.056 89.9466 200.261 89.9466C199.721 89.9466 199.241 90.0659 198.82 90.3045C198.406 90.5375 198.079 90.8756 197.84 91.3187C197.607 91.7619 197.491 92.2989 197.491 92.9295ZM213.889 100.83C212.86 100.83 211.94 100.566 211.127 100.037C210.315 99.5091 209.673 98.742 209.201 97.7364C208.729 96.7307 208.494 95.5091 208.494 94.0716C208.494 92.617 208.732 91.3898 209.21 90.3898C209.692 89.3841 210.343 88.6256 211.161 88.1142C211.979 87.5971 212.891 87.3386 213.897 87.3386C214.664 87.3386 215.295 87.4693 215.789 87.7307C216.283 87.9864 216.675 88.296 216.965 88.6596C217.255 89.0176 217.479 89.3557 217.639 89.6739H217.766V83.1454H220.86V100.6H217.826V98.5375H217.639C217.479 98.8557 217.249 99.1937 216.948 99.5517C216.647 99.904 216.249 100.205 215.755 100.455C215.261 100.705 214.639 100.83 213.889 100.83ZM214.749 98.2989C215.403 98.2989 215.96 98.1227 216.42 97.7704C216.88 97.4125 217.229 96.9153 217.468 96.279C217.707 95.6426 217.826 94.9011 217.826 94.0545C217.826 93.2079 217.707 92.4721 217.468 91.8471C217.235 91.2221 216.889 90.7364 216.428 90.3898C215.974 90.0432 215.414 89.8699 214.749 89.8699C214.062 89.8699 213.488 90.0489 213.028 90.4068C212.567 90.7648 212.221 91.2591 211.988 91.8898C211.755 92.5204 211.639 93.242 211.639 94.0545C211.639 94.8727 211.755 95.6028 211.988 96.2449C212.227 96.8812 212.576 97.3841 213.036 97.7534C213.502 98.117 214.073 98.2989 214.749 98.2989Z" fill="#186CA8"/>
</svg>
