<svg width="32" height="16" viewBox="0 0 32 16" fill="none" xmlns="http://www.w3.org/2000/svg">
<path d="M15.8729 0.569946C11.6899 0.569946 8.29871 3.96101 8.29871 8.14401C8.29871 12.3272 11.6899 15.718 15.8729 15.718C20.0563 15.718 23.4471 12.3272 23.4471 8.14401C23.4471 3.96128 20.0563 0.570308 15.8728 0.570308L15.8729 0.569946ZM19.3463 11.4939C19.2107 11.7164 18.9194 11.787 18.6969 11.6504C16.9186 10.5641 14.6799 10.3181 12.0434 10.9205C11.7894 10.9784 11.5361 10.8192 11.4782 10.5651C11.4201 10.3109 11.5786 10.0577 11.8333 9.99977C14.7185 9.34033 17.1934 9.62442 19.1899 10.8445C19.4123 10.9811 19.4829 11.2714 19.3463 11.4939ZM20.2734 9.43132C20.1024 9.70944 19.7389 9.79717 19.4612 9.62623C17.4253 8.37456 14.3218 8.01215 11.9137 8.74312C11.6014 8.83746 11.2716 8.66145 11.1768 8.34969C11.0827 8.03738 11.2588 7.70816 11.5706 7.61319C14.3213 6.77856 17.7409 7.18285 20.0789 8.61958C20.3566 8.79052 20.4443 9.15402 20.2734 9.43132ZM20.353 7.28379C17.9119 5.83386 13.8843 5.70054 11.5537 6.40792C11.1794 6.52143 10.7836 6.31015 10.6702 5.93588C10.5568 5.56144 10.7679 5.16592 11.1424 5.05214C13.8179 4.23994 18.2655 4.39687 21.076 6.06531C21.4134 6.2651 21.5237 6.69987 21.3238 7.03606C21.1248 7.3727 20.6889 7.48367 20.3533 7.28379H20.353Z" fill="#182F40"/>
</svg>
