<svg width="32" height="27" viewBox="0 0 32 27" fill="none" xmlns="http://www.w3.org/2000/svg">
<rect x="8.50139" y="0.843186" width="15.8479" height="15.8479" rx="7.92396" fill="#182F40"/>
<rect x="8.50139" y="0.843186" width="15.8479" height="15.8479" rx="7.92396" stroke="#182F40" stroke-width="0.54648"/>
<path d="M16.4252 13.7288C19.139 13.7288 21.3868 11.4857 21.3868 8.76721C21.3868 6.05349 19.139 3.80566 16.4204 3.80566C13.7067 3.80566 11.4637 6.05349 11.4637 8.76721C11.4637 11.4857 13.7115 13.7288 16.4252 13.7288ZM16.4252 12.9603C14.3551 12.9603 12.602 11.4089 12.285 9.41562C12.3138 9.42042 12.3378 9.42042 12.3667 9.42042C12.8806 9.42042 13.2216 8.98335 13.2216 8.31572C13.2216 8.10439 13.26 8.04195 13.3993 7.97471L13.7067 7.83062C13.87 7.74896 14.0189 7.8114 14.1198 7.95069L14.6913 8.78642C15.2197 9.55011 15.7576 9.8623 16.2523 9.8623C16.7278 9.8623 17.0496 9.55971 17.0496 9.09382C17.0496 8.82004 16.9103 8.58469 16.6846 8.4358C16.5405 8.33494 16.5837 8.21966 16.7134 8.21966C17.8854 8.21966 18.5049 7.79699 18.5049 6.94686C18.5049 5.82294 17.5539 5.7605 17.5539 5.47232C17.5539 5.29941 17.7701 5.20335 17.919 4.85753C19.4848 5.46752 20.6183 6.99969 20.6183 8.76721C20.6183 9.20909 20.5462 9.63656 20.4166 10.04C20.1668 9.83349 19.9651 9.74703 19.7297 9.74703C19.5472 9.74703 19.4463 9.79506 19.3455 9.82868C19.2446 9.8575 19.1966 9.81427 19.1822 9.72782C19.1341 9.3772 18.9132 9.23791 18.5578 9.23791H18.308C18.015 9.23791 17.7797 9.39161 17.602 9.66538L17.5251 9.78546C17.4051 9.97277 17.2994 10.1265 17.1937 10.2273C17.0929 10.3186 17.016 10.3618 16.8191 10.4243L16.5981 10.4915C16.2619 10.5972 16.1611 10.8902 16.2523 11.2168L16.4829 12.0285C16.5693 12.3263 16.747 12.48 17.0352 12.48C17.1601 12.48 17.3138 12.4319 17.4723 12.3551L17.5443 12.3215C17.6548 12.2686 17.7365 12.2494 17.8181 12.2494C18.0054 12.2494 18.1303 12.3407 18.2744 12.5232C17.7172 12.8018 17.0881 12.9603 16.4252 12.9603Z" fill="white"/>
<path d="M5.61386 24.0573L4.51159 20.0829H5.14229L5.9166 23.1607H5.95347L6.75883 20.0829H7.38371L8.18907 23.1626H8.22594L8.99831 20.0829H9.63095L8.52674 24.0573H7.9232L7.08679 21.0803H7.05574L6.21933 24.0573H5.61386ZM10.1777 24.0573V20.0829H12.6695V20.5991H10.7774V21.81H12.5395V22.3243H10.7774V23.541H12.6928V24.0573H10.1777ZM13.4705 24.0573V20.0829H14.9259C15.208 20.0829 15.4415 20.1294 15.6265 20.2226C15.8115 20.3144 15.9499 20.4393 16.0418 20.5971C16.1337 20.7537 16.1796 20.9303 16.1796 21.1269C16.1796 21.2925 16.1492 21.4322 16.0884 21.5461C16.0276 21.6586 15.9461 21.7492 15.8439 21.8178C15.7429 21.885 15.6317 21.9342 15.5101 21.9653V22.0041C15.642 22.0105 15.7708 22.0532 15.8963 22.1322C16.023 22.2098 16.1278 22.3204 16.2106 22.464C16.2934 22.6076 16.3348 22.7823 16.3348 22.988C16.3348 23.1911 16.287 23.3735 16.1912 23.5352C16.0968 23.6956 15.9506 23.8231 15.7527 23.9175C15.5547 24.0107 15.3018 24.0573 14.9939 24.0573H13.4705ZM14.0701 23.543H14.9356C15.2229 23.543 15.4286 23.4874 15.5528 23.3761C15.677 23.2648 15.7391 23.1258 15.7391 22.9589C15.7391 22.8334 15.7074 22.7182 15.644 22.6134C15.5806 22.5086 15.49 22.4252 15.3723 22.3631C15.2559 22.301 15.1174 22.2699 14.957 22.2699H14.0701V23.543ZM14.0701 21.8022H14.8735C15.0081 21.8022 15.1291 21.7764 15.2364 21.7246C15.3451 21.6729 15.4312 21.6004 15.4945 21.5073C15.5592 21.4128 15.5916 21.3016 15.5916 21.1735C15.5916 21.0092 15.534 20.8714 15.4189 20.7601C15.3037 20.6489 15.1271 20.5932 14.8891 20.5932H14.0701V21.8022ZM19.2138 21.1269C19.1931 20.9432 19.1077 20.8009 18.9576 20.7C18.8075 20.5978 18.6186 20.5467 18.3909 20.5467C18.2279 20.5467 18.0869 20.5725 17.9679 20.6243C17.8489 20.6747 17.7563 20.7446 17.6904 20.8339C17.6257 20.9218 17.5933 21.0221 17.5933 21.1347C17.5933 21.2291 17.6153 21.3106 17.6593 21.3792C17.7046 21.4478 17.7635 21.5053 17.8359 21.5519C17.9097 21.5972 17.9886 21.6354 18.0727 21.6664C18.1568 21.6962 18.2376 21.7207 18.3152 21.7401L18.7034 21.8411C18.8302 21.8721 18.9602 21.9142 19.0934 21.9672C19.2267 22.0202 19.3502 22.0901 19.4641 22.1768C19.5779 22.2635 19.6698 22.3708 19.7397 22.4989C19.8108 22.627 19.8464 22.7803 19.8464 22.9589C19.8464 23.184 19.7882 23.3839 19.6717 23.5585C19.5566 23.7332 19.3891 23.871 19.1691 23.9719C18.9505 24.0728 18.6859 24.1232 18.3754 24.1232C18.0778 24.1232 17.8204 24.076 17.603 23.9816C17.3857 23.8871 17.2156 23.7532 17.0927 23.5799C16.9697 23.4052 16.9018 23.1982 16.8889 22.9589H17.4905C17.5021 23.1025 17.5487 23.2221 17.6302 23.3179C17.713 23.4123 17.8184 23.4828 17.9465 23.5294C18.0759 23.5747 18.2176 23.5973 18.3715 23.5973C18.541 23.5973 18.6917 23.5708 18.8237 23.5178C18.9569 23.4634 19.0617 23.3884 19.1381 23.2926C19.2144 23.1956 19.2526 23.0824 19.2526 22.953C19.2526 22.8353 19.2189 22.7389 19.1517 22.6639C19.0857 22.5888 18.9958 22.5267 18.8819 22.4776C18.7694 22.4284 18.6419 22.3851 18.4996 22.3476L18.03 22.2195C17.7117 22.1328 17.4594 22.0054 17.2731 21.8372C17.0881 21.669 16.9956 21.4465 16.9956 21.1696C16.9956 20.9406 17.0577 20.7407 17.1819 20.5699C17.3061 20.3992 17.4743 20.2666 17.6865 20.1721C17.8987 20.0764 18.138 20.0285 18.4045 20.0285C18.6736 20.0285 18.911 20.0757 19.1167 20.1702C19.3237 20.2646 19.4867 20.3946 19.6058 20.5602C19.7248 20.7246 19.7869 20.9134 19.7921 21.1269H19.2138ZM21.1626 20.0829V24.0573H20.563V20.0829H21.1626ZM21.8399 20.5991V20.0829H24.9158V20.5991H23.6757V24.0573H23.078V20.5991H21.8399ZM25.5955 24.0573V20.0829H28.0873V20.5991H26.1952V21.81H27.9572V22.3243H26.1952V23.541H28.1105V24.0573H25.5955Z" fill="#182F40"/>
</svg>
