<svg width="31" height="16" viewBox="0 0 31 16" fill="none" xmlns="http://www.w3.org/2000/svg">
<g clip-path="url(#clip0_29_365)">
<path d="M23.0415 4.486C22.9556 4.16274 22.7863 3.86771 22.5505 3.63044C22.3147 3.39318 22.0208 3.22199 21.6981 3.13401C20.5101 2.81458 15.7618 2.81458 15.7618 2.81458C15.7618 2.81458 11.0134 2.81458 9.82544 3.13401C9.50273 3.22199 9.20879 3.39318 8.97304 3.63044C8.73729 3.86771 8.56798 4.16274 8.48208 4.486C8.16437 5.67914 8.16437 8.16729 8.16437 8.16729C8.16437 8.16729 8.16437 10.6554 8.48208 11.8486C8.56798 12.1718 8.73729 12.4669 8.97304 12.7041C9.20879 12.9414 9.50273 13.1126 9.82544 13.2006C11.0134 13.52 15.7618 13.52 15.7618 13.52C15.7618 13.52 20.5101 13.52 21.6981 13.2006C22.0208 13.1126 22.3147 12.9414 22.5505 12.7041C22.7863 12.4669 22.9556 12.1718 23.0415 11.8486C23.3592 10.6554 23.3592 8.16729 23.3592 8.16729C23.3592 8.16729 23.3592 5.67914 23.0415 4.486Z" fill="#182F40"/>
<path d="M14.2078 10.4268V5.90808L18.1792 8.16744L14.2078 10.4268Z" fill="#FEFEFE"/>
</g>
<defs>
<clipPath id="clip0_29_365">
<rect width="15.1948" height="15.1948" fill="white" transform="translate(8.14935 0.569946)"/>
</clipPath>
</defs>
</svg>
